<svg xmlns="http://www.w3.org/2000/svg" xmlns:xlink="http://www.w3.org/1999/xlink" viewBox="0,0,256,256" width="512px" height="512px"><defs><radialGradient cx="32" cy="32.092" r="33.002" gradientUnits="userSpaceOnUse" id="color-1"><stop offset="0" stop-color="#c8bfaa" stop-opacity="0"></stop><stop offset="0" stop-color="#f2e0bb" stop-opacity="0"></stop><stop offset="0.011" stop-color="#f2e0bc" stop-opacity="0"></stop><stop offset="0.362" stop-color="#f9edd2" stop-opacity="0"></stop><stop offset="0.699" stop-color="#fef4df" stop-opacity="0"></stop><stop offset="1" stop-color="#fff7e4" stop-opacity="0"></stop></radialGradient><linearGradient x1="33" y1="6.092" x2="33" y2="58.092" gradientUnits="userSpaceOnUse" id="color-2"><stop offset="0" stop-color="#00d772"></stop><stop offset="0.746" stop-color="#00b26e"></stop><stop offset="1" stop-color="#00b26e"></stop></linearGradient><linearGradient x1="45.5" y1="7.092" x2="45.5" y2="24.092" gradientUnits="userSpaceOnUse" id="color-3"><stop offset="0" stop-color="#00d772"></stop><stop offset="0.746" stop-color="#00b26e"></stop><stop offset="1" stop-color="#00b26e"></stop></linearGradient><linearGradient x1="38" y1="13.731" x2="54.842" y2="13.731" gradientUnits="userSpaceOnUse" id="color-4"><stop offset="0" stop-color="#00d772"></stop><stop offset="0.318" stop-color="#00d272"></stop><stop offset="0.669" stop-color="#00c570"></stop><stop offset="0.996" stop-color="#00b26e"></stop><stop offset="1" stop-color="#00b26e"></stop></linearGradient></defs><g fill="none" fill-rule="nonzero" stroke="none" stroke-width="1" stroke-linecap="butt" stroke-linejoin="miter" stroke-miterlimit="10" stroke-dasharray="" stroke-dashoffset="0" font-family="none" font-weight="none" font-size="none" text-anchor="none" style="mix-blend-mode: normal"><g transform="scale(4,4)"><path d="M55.454,45.76c0.5,0.898 1.504,1.337 2.532,1.332c1.75,-0.008 3.153,1.483 3.002,3.262c-0.133,1.576 -1.554,2.738 -3.136,2.738h-9.852v1h-22h-8h-11c-1.71,0 -3.086,-1.431 -2.996,-3.161c0.085,-1.623 1.541,-2.839 3.166,-2.839h0.83c1.215,0 2.176,-1.083 1.973,-2.336c-0.16,-0.983 -1.084,-1.664 -2.08,-1.664h-4.893c-1.71,0 -3.086,-1.431 -2.996,-3.161c0.085,-1.623 1.541,-2.839 3.166,-2.839h6.33c1.381,0 2.5,-1.119 2.5,-2.5v0c0,-1.381 -1.119,-2.5 -2.5,-2.5v0c-1.381,0 -2.5,-1.119 -2.5,-2.5v0c0,-1.381 1.119,-2.5 2.5,-2.5h8.5v-7h-7.5c-1.995,0 -3.601,-1.67 -3.495,-3.688c0.099,-1.893 1.798,-3.312 3.693,-3.312h7.302v-4h24h6h8.5c1.995,0 3.601,1.67 3.495,3.688c-0.099,1.893 -1.798,3.312 -3.693,3.312h-2.802c-1.995,0 -3.601,1.67 -3.495,3.688c0.099,1.893 1.798,3.312 3.693,3.312h2.302c1.777,0 3.194,1.546 2.978,3.366c-0.179,1.509 -1.546,2.572 -3.064,2.635c-1.197,0.05 -2.122,1.153 -1.874,2.406c0.188,0.948 1.083,1.593 2.049,1.593h4.411c1.995,0 3.601,1.67 3.495,3.688c-0.099,1.893 -1.798,3.312 -3.693,3.312h-2.302c-2.192,0 -3.834,2.35 -2.546,4.668zM2.5,33.092v0c1.381,0 2.5,-1.119 2.5,-2.5v0c0,-1.381 -1.119,-2.5 -2.5,-2.5v0c-1.381,0 -2.5,1.119 -2.5,2.5v0c0,1.381 1.119,2.5 2.5,2.5z" fill="url(#color-1)"></path><path d="M50,58.092h-34c-1.657,0 -3,-1.343 -3,-3v-46c0,-1.657 1.343,-3 3,-3h20.757c0.796,0 1.559,0.316 2.121,0.879l13.243,13.243c0.563,0.562 0.879,1.325 0.879,2.121v32.757c0,1.657 -1.343,3 -3,3z" fill="url(#color-2)"></path><path d="M44,14.092c-1.657,0 -6,-5.343 -6,-7v14c0,1.657 1.343,3 3,3h12v-1.757c0,-0.434 -0.102,-0.855 -0.279,-1.243z" fill="url(#color-3)"></path><path d="M52.121,20.214l-13.243,-13.243c-0.255,-0.255 -0.556,-0.452 -0.878,-0.6v11.721c0,1.657 1.343,3 3,3h11.721c-0.147,-0.322 -0.344,-0.623 -0.6,-0.878z" fill="url(#color-4)"></path><path d="M45,50.092h-24c-1.105,0 -2,-0.895 -2,-2v0c0,-1.105 0.895,-2 2,-2h24c1.105,0 2,0.895 2,2v0c0,1.105 -0.895,2 -2,2zM32,38.092h12.5c1.105,0 2,0.895 2,2v0c0,1.105 -0.895,2 -2,2h-12.5c-1.105,0 -2,-0.895 -2,-2v0c0,-1.105 0.895,-2 2,-2zM21,38.092h9c1.105,0 2,0.895 2,2v0c0,1.105 -0.895,2 -2,2h-9c-1.105,0 -2,-0.895 -2,-2v0c0,-1.105 0.895,-2 2,-2zM23,32.092v16c0,1.105 -0.895,1.5 -2,1.5v0.5c-1.105,0 -2,-0.895 -2,-2v-16c0,-1.105 0.895,-2 2,-2v0c1.105,0 2,0.895 2,2zM33,32.092v16c0,1.105 -0.895,1.5 -2,1.5v0.5c-1.105,0 -2,-0.895 -2,-2v-16c0,-1.105 0.895,-2 2,-2v0c1.105,0 2,0.895 2,2zM47,32.092v16c0,1.105 -0.895,2 -2,2v-0.5c-1.105,0 -2,-0.395 -2,-1.5v-16c0,-1.105 0.895,-2 2,-2v0c1.105,0 2,0.895 2,2zM21,30.092h24c1.105,0 2,0.895 2,2v0c0,1.105 -0.895,2 -2,2h-24c-1.105,0 -2,-0.895 -2,-2v0c0,-1.105 0.895,-2 2,-2z" fill="#f1fcff"></path></g></g></svg>